<svg xmlns="http://www.w3.org/2000/svg" viewBox="0 0 1200 700">
<!--
  UNDERVATTEN — Escape Room
  Djuphav med koraller, vrakrester och havsdjur.
-->
<defs>
  <linearGradient id="sea-grad" x1="0" y1="0" x2="0" y2="1">
    <stop offset="0%" stop-color="#064273"/>
    <stop offset="60%" stop-color="#042a50"/>
    <stop offset="100%" stop-color="#021830"/>
  </linearGradient>
  <filter id="underwater">
    <feGaussianBlur stdDeviation="1.5" result="blur"/>
    <feMerge><feMergeNode in="blur"/><feMergeNode in="SourceGraphic"/></feMerge>
  </filter>
</defs>

<!-- ═══ BAKGRUND ═══ -->
<rect width="1200" height="700" fill="url(#sea-grad)"/>
<!-- Ljusstrålar uppifrån -->
<path d="M300,0 L250,700" stroke="white" stroke-width="40" opacity="0.02"/>
<path d="M600,0 L550,700" stroke="white" stroke-width="50" opacity="0.02"/>
<path d="M900,0 L870,700" stroke="white" stroke-width="35" opacity="0.02"/>
<!-- Havsbotten -->
<path d="M0,600 Q150,580 300,610 Q500,630 700,595 Q900,570 1050,605 Q1150,620 1200,600 L1200,700 L0,700Z" fill="#1a3020"/>
<!-- Sand -->
<path d="M0,620 Q200,610 400,630 Q600,645 800,620 Q1000,600 1200,625 L1200,700 L0,700Z" fill="#3a5030" opacity="0.5"/>

<!-- Bubblor (deko) -->
<g fill="white" opacity="0.15">
  <circle cx="200" cy="100" r="4"/><circle cx="210" cy="130" r="3"/>
  <circle cx="195" cy="160" r="2"/><circle cx="600" cy="200" r="5"/>
  <circle cx="610" cy="240" r="3"/><circle cx="595" cy="270" r="2"/>
  <circle cx="1000" cy="150" r="4"/><circle cx="990" cy="185" r="2.5"/>
</g>

<!-- ═══ BLÄCKFISK (klickbar) ═══ -->
<g data-obj="blackfisk" filter="url(#underwater)">
  <ellipse cx="200" cy="230" rx="40" ry="30" fill="#8040a0"/>
  <!-- Ögon -->
  <circle cx="185" cy="222" r="8" fill="white"/>
  <circle cx="215" cy="222" r="8" fill="white"/>
  <circle cx="187" cy="222" r="4" fill="#1a1a2e"/>
  <circle cx="217" cy="222" r="4" fill="#1a1a2e"/>
  <!-- Tentakler -->
  <path d="M170,255 Q150,290 165,310" fill="none" stroke="#8040a0" stroke-width="5" stroke-linecap="round"/>
  <path d="M180,260 Q165,300 175,325" fill="none" stroke="#7030a0" stroke-width="5" stroke-linecap="round"/>
  <path d="M200,265 Q195,310 205,330" fill="none" stroke="#8040a0" stroke-width="5" stroke-linecap="round"/>
  <path d="M220,260 Q235,300 225,325" fill="none" stroke="#7030a0" stroke-width="5" stroke-linecap="round"/>
  <path d="M230,255 Q250,290 235,310" fill="none" stroke="#8040a0" stroke-width="5" stroke-linecap="round"/>
</g>

<!-- ═══ KORALL (klickbar) ═══ -->
<g data-obj="korall">
  <!-- Stor korall -->
  <path d="M850,600 Q840,550 830,520 Q825,500 835,490" fill="none" stroke="#e04060" stroke-width="8" stroke-linecap="round"/>
  <path d="M850,600 Q855,540 870,510 Q880,495 875,485" fill="none" stroke="#e06080" stroke-width="7" stroke-linecap="round"/>
  <path d="M850,600 Q860,560 845,530" fill="none" stroke="#d03050" stroke-width="6" stroke-linecap="round"/>
  <!-- Liten korall -->
  <path d="M870,610 Q875,580 880,560 Q885,550 882,540" fill="none" stroke="#f0a040" stroke-width="5" stroke-linecap="round"/>
  <path d="M870,610 Q880,575 895,555" fill="none" stroke="#e09030" stroke-width="4" stroke-linecap="round"/>
</g>

<!-- ═══ SKATTKISTA (klickbar) ═══ -->
<g data-obj="skattkista">
  <rect x="500" y="590" width="120" height="55" rx="3" fill="#5a3a1a" stroke="#4a2a0a" stroke-width="2"/>
  <path d="M498,590 Q560,570 622,590Z" fill="#6a4a2a" stroke="#4a2a0a" stroke-width="2"/>
  <rect x="550" y="578" width="20" height="15" rx="2" fill="#c8a040"/>
  <!-- Guldmynt -->
  <circle cx="520" cy="605" r="5" fill="#ffd700" opacity="0.6"/>
  <circle cx="590" cy="610" r="4" fill="#ffd700" opacity="0.5"/>
  <circle cx="555" cy="608" r="3" fill="#ffd700" opacity="0.4"/>
  <!-- Sand runt kistan -->
  <ellipse cx="560" cy="645" rx="80" ry="10" fill="#3a5030" opacity="0.3"/>
</g>

<!-- ═══ FISK (klickbar) ═══ -->
<g data-obj="fisk">
  <!-- Kropp -->
  <ellipse cx="400" cy="350" rx="30" ry="15" fill="#f0a030"/>
  <!-- Stjärt -->
  <path d="M430,350 L450,335 L450,365Z" fill="#e09020"/>
  <!-- Fenor -->
  <path d="M390,340 Q385,325 400,330" fill="#d08020"/>
  <path d="M395,360 Q388,375 405,365" fill="#d08020"/>
  <!-- Öga -->
  <circle cx="380" cy="347" r="5" fill="white"/>
  <circle cx="378" cy="347" r="2.5" fill="#1a1a2e"/>
  <!-- Ränder -->
  <path d="M395,338 L395,362" stroke="#d08020" stroke-width="1.5"/>
  <path d="M405,340 L405,360" stroke="#d08020" stroke-width="1.5"/>
</g>

<!-- ═══ ANKARE (klickbar) ═══ -->
<g data-obj="ankare">
  <!-- Kedja -->
  <line x1="130" y1="0" x2="130" y2="350" stroke="#6a7a8a" stroke-width="4" stroke-dasharray="8,4"/>
  <!-- Ankare -->
  <line x1="130" y1="350" x2="130" y2="450" stroke="#5a6a7a" stroke-width="6"/>
  <path d="M90,450 Q130,480 170,450" fill="none" stroke="#5a6a7a" stroke-width="6" stroke-linecap="round"/>
  <line x1="90" y1="450" x2="90" y2="420" stroke="#5a6a7a" stroke-width="4"/>
  <line x1="170" y1="450" x2="170" y2="420" stroke="#5a6a7a" stroke-width="4"/>
  <!-- Ring -->
  <circle cx="130" cy="345" r="10" fill="none" stroke="#5a6a7a" stroke-width="4"/>
</g>

<!-- ═══ SJÖSTJÄRNA (klickbar) ═══ -->
<g data-obj="sjostjarna">
  <polygon points="680,620 685,605 698,600 685,595 680,580 675,595 662,600 675,605"
    fill="#e06040" stroke="#c04020" stroke-width="1"/>
  <!-- Prickar -->
  <circle cx="680" cy="600" r="2" fill="#f0a080" opacity="0.5"/>
  <circle cx="673" cy="596" r="1.2" fill="#f0a080" opacity="0.4"/>
  <circle cx="687" cy="604" r="1.2" fill="#f0a080" opacity="0.4"/>
</g>

<!-- ═══ KRABBA (klickbar) ═══ -->
<g data-obj="krabba">
  <ellipse cx="1000" cy="640" rx="25" ry="15" fill="#c04020"/>
  <!-- Klor -->
  <path d="M975,635 Q955,620 960,610 Q965,615 970,625" fill="#d05030" stroke="#a03018" stroke-width="1"/>
  <path d="M1025,635 Q1045,620 1040,610 Q1035,615 1030,625" fill="#d05030" stroke="#a03018" stroke-width="1"/>
  <!-- Ögon på pinnar -->
  <line x1="990" y1="628" x2="985" y2="618" stroke="#c04020" stroke-width="2"/>
  <line x1="1010" y1="628" x2="1015" y2="618" stroke="#c04020" stroke-width="2"/>
  <circle cx="985" cy="616" r="3" fill="#1a1a2e" stroke="#c04020" stroke-width="1"/>
  <circle cx="1015" cy="616" r="3" fill="#1a1a2e" stroke="#c04020" stroke-width="1"/>
</g>

<!-- ═══ PORTAL / DÖRR (kodlåset) ═══ -->
<g data-obj="dorr" filter="url(#underwater)">
  <!-- Stenportal (undervattensruin) -->
  <rect x="540" y="100" width="25" height="140" rx="3" fill="#4a6a5a" stroke="#3a5a4a" stroke-width="2"/>
  <rect x="635" y="100" width="25" height="140" rx="3" fill="#4a6a5a" stroke="#3a5a4a" stroke-width="2"/>
  <path d="M540,100 Q600,60 660,100" fill="#4a6a5a" stroke="#3a5a4a" stroke-width="2"/>
  <!-- Mystiskt ljus -->
  <rect x="565" y="110" width="70" height="125" fill="#40c0a0" opacity="0.1"/>
  <!-- Symboler -->
  <circle cx="600" cy="140" r="15" fill="none" stroke="#40c0a0" stroke-width="2" opacity="0.4"/>
  <polygon points="600,128 605,138 615,140 607,147 609,158 600,152 591,158 593,147 585,140 595,138"
    fill="#40c0a0" opacity="0.3"/>
  <!-- Kodlås -->
  <rect x="582" y="200" width="36" height="26" rx="4" fill="#333" stroke="#4a6a5a" stroke-width="1.5"/>
  <circle cx="600" cy="215" r="2.5" fill="#0f0" opacity="0.7"/>
</g>

</svg>
